<svg width="122" height="92" viewBox="0 0 122 92" fill="none" xmlns="http://www.w3.org/2000/svg">
<path d="M37.4194 65.64L32.4143 69.77C29.8907 71.8525 28.2075 74.7791 27.6766 78.0077L27.4147 79.6007C26.8252 83.1862 24.4393 86.2194 21.0935 87.637C17.6377 89.1011 13.6652 88.6277 10.6503 86.3923L8.86055 85.0653C5.17393 82.3318 3 78.0137 3 73.4243V59.26L6.12903 33.74L9.65083 19.6395C10.7525 15.2288 13.1958 11.2687 16.6436 8.30557C20.6269 4.88232 25.7052 3 30.9574 3H74.387C79.483 3 84.4209 4.76906 88.3575 8.00508L88.8697 8.42615C92.3793 11.3111 94.9096 15.2119 96.1132 19.5928L100 33.74M103 74.92L98.9011 81.9949C96.2308 86.6041 90.6031 88.584 85.6351 86.6622C83.4501 85.817 81.5985 84.2854 80.3585 82.2976L72.5 69.7" stroke="url(#paint0_linear_131_159)" stroke-width="6" stroke-linecap="round"/>
<rect x="25" y="16" width="4" height="25" rx="2" fill="#52E3EB"/>
<rect x="14.5" y="30.5" width="4" height="25" rx="2" transform="rotate(-90 14.5 30.5)" fill="#52E3EB"/>
<path d="M29 58H43.7826C44.2697 58 44.686 57.649 44.7683 57.1689L46.5013 47.0539C46.6803 46.0094 48.1478 45.9242 48.4464 46.9409L50.5166 53.9891C50.8131 54.9984 52.2668 54.9244 52.4592 53.8902L57.8213 25.0652C58.0224 23.9843 59.5667 23.9722 59.7846 25.0498L65.2647 52.1524C65.4523 53.0804 66.7047 53.2523 67.1354 52.4091L73.6668 39.6229C74.0716 38.8305 75.2319 38.9217 75.508 39.7676L78.2568 48.1902C78.391 48.6016 78.7747 48.88 79.2074 48.88H93.7668C94.132 48.88 94.4682 49.0791 94.6438 49.3995L100.172 59.4887C100.541 60.1621 101.5 60.1856 101.901 59.5311L108.144 49.357C108.326 49.0606 108.648 48.88 108.996 48.88H120" stroke="url(#paint1_linear_131_159)" stroke-width="3" stroke-linecap="round"/>
<ellipse cx="79.4763" cy="13" rx="2.85714" ry="3" fill="#26A1FA"/>
<ellipse cx="71.8571" cy="20" rx="2.85714" ry="3" fill="#26A1FA"/>
<ellipse cx="86.1428" cy="20" rx="2.85714" ry="3" fill="#26A1FA"/>
<ellipse cx="79.4763" cy="27" rx="2.85714" ry="3" fill="#26A1FA"/>
<defs>
<linearGradient id="paint0_linear_131_159" x1="3" y1="46.5" x2="103" y2="46.5" gradientUnits="userSpaceOnUse">
<stop stop-color="#00FFE1"/>
<stop offset="1" stop-color="#2D8FFF"/>
</linearGradient>
<linearGradient id="paint1_linear_131_159" x1="29" y1="39" x2="103.409" y2="39" gradientUnits="userSpaceOnUse">
<stop stop-color="#2D2D2D" stop-opacity="0.22"/>
<stop offset="0.317308" stop-color="#F8FFFF"/>
<stop offset="1" stop-color="white"/>
</linearGradient>
</defs>
</svg>
